<?xml version="1.0" standalone="no"?>
<!DOCTYPE svg PUBLIC "-//W3C//DTD SVG 20010904//EN"
 "http://www.w3.org/TR/2001/REC-SVG-20010904/DTD/svg10.dtd">
<svg version="1.0" xmlns="http://www.w3.org/2000/svg"
 width="582.000000pt" height="582.000000pt" viewBox="0 0 582.000000 582.000000"
 preserveAspectRatio="xMidYMid meet">
<metadata>
Created by potrace 1.14, written by Peter Selinger 2001-2017
</metadata>
<g transform="translate(0.000000,582.000000) scale(0.100000,-0.100000)"
fill="#000000" stroke="none">
<path d="M2445 5784 c-60 -9 -171 -31 -245 -50 -754 -193 -1364 -796 -1565
-1546 -54 -203 -69 -326 -69 -568 0 -124 5 -251 11 -283 l10 -57 -32 -20 c-50
-31 -124 -116 -147 -168 -14 -30 -23 -75 -26 -128 -4 -67 -1 -87 17 -121 17
-35 66 -83 84 -83 3 0 18 -5 32 -10 l26 -10 -35 -43 c-45 -55 -86 -143 -86
-184 0 -43 30 -73 73 -73 18 0 73 13 122 30 49 16 90 29 91 27 1 -1 11 -24 22
-52 11 -27 23 -57 26 -67 6 -13 -3 -19 -49 -33 -82 -23 -149 -91 -164 -166
-25 -120 27 -185 191 -239 37 -11 78 -30 92 -41 24 -19 26 -26 26 -102 0 -130
32 -207 100 -242 34 -18 132 -20 195 -4 l44 11 73 -75 c152 -156 356 -250 648
-299 116 -20 517 -16 665 6 264 39 577 116 810 201 54 19 104 34 111 31 7 -3
15 -17 18 -33 12 -54 77 -126 147 -161 56 -29 76 -34 136 -34 122 0 220 59
272 164 59 117 32 245 -58 279 -22 9 -9 18 130 95 658 366 1065 775 1159 1164
26 110 26 267 1 365 l-19 70 25 29 c36 43 73 120 84 180 14 66 -2 149 -37 201
-29 44 -29 45 -4 45 29 0 76 26 84 45 28 73 -54 209 -169 282 l-43 27 5 55
c10 120 -80 308 -181 378 -75 51 -140 66 -272 61 l-112 -4 -23 55 c-52 126
-209 330 -385 501 -313 303 -679 493 -1114 577 -115 22 -168 26 -360 29 -163
2 -255 -1 -335 -12z m545 -84 c623 -77 1164 -414 1502 -935 32 -49 66 -114 75
-144 22 -76 14 -172 -21 -241 -37 -73 -188 -272 -233 -307 -115 -89 -393 -243
-616 -343 -570 -253 -1149 -374 -1630 -340 -333 23 -474 64 -636 186 -117 88
-226 250 -266 399 -67 242 9 728 166 1065 l49 105 -84 -86 c-200 -205 -378
-497 -470 -774 -80 -237 -109 -416 -110 -675 -1 -281 23 -419 89 -506 41 -53
12 -40 -43 21 -83 91 -106 198 -106 495 0 217 15 342 63 526 141 536 493 1001
970 1282 235 138 521 235 797 271 99 12 405 13 504 1z m1985 -1189 c79 -44
148 -165 162 -283 5 -45 4 -50 -33 -86 -48 -48 -135 -79 -344 -122 -340 -71
-398 -94 -421 -168 -10 -33 -9 -52 6 -112 26 -106 18 -216 -22 -302 -62 -131
-153 -160 -393 -123 -52 8 -126 15 -163 15 -65 0 -71 -2 -103 -34 -28 -28 -34
-41 -34 -78 0 -25 7 -67 15 -94 9 -27 18 -88 22 -135 8 -119 -18 -206 -83
-278 -73 -81 -109 -96 -229 -96 -98 1 -104 2 -250 59 -308 119 -353 130 -442
106 -42 -11 -64 -30 -168 -136 -93 -95 -133 -129 -177 -149 -75 -34 -146 -45
-232 -34 -109 14 -179 52 -293 162 -110 104 -132 115 -209 96 -42 -11 -66 -29
-186 -146 -172 -167 -209 -187 -333 -182 -72 4 -87 7 -109 28 -37 35 -32 94
18 226 8 22 15 63 16 92 0 46 -3 54 -32 78 l-32 27 -146 -7 c-224 -12 -269 -5
-295 45 -37 71 6 208 84 269 l37 29 24 -46 c38 -70 114 -140 194 -178 107 -50
295 -100 472 -125 212 -31 606 -33 787 -6 214 32 597 129 782 197 368 135 611
261 1005 519 222 146 579 508 743 754 33 50 67 154 67 208 l0 38 48 4 c101 9
194 -3 247 -32z m323 -546 c22 -25 42 -54 45 -64 5 -21 0 -22 -118 -36 -191
-23 -466 -103 -653 -190 -56 -27 -104 -46 -107 -44 -7 7 -35 152 -35 181 0 23
7 29 53 46 28 11 142 39 251 62 223 46 342 83 400 122 l39 27 42 -29 c24 -16
61 -50 83 -75z m-58 -231 c44 -38 60 -75 61 -143 2 -116 -72 -205 -240 -289
-86 -42 -98 -52 -118 -92 -21 -40 -23 -59 -23 -191 0 -144 -1 -148 -26 -178
-34 -41 -71 -49 -254 -61 -168 -11 -243 -26 -318 -64 -62 -32 -111 -80 -225
-223 -155 -194 -197 -224 -324 -231 l-81 -4 -7 76 c-7 69 7 244 22 283 3 8 90
56 193 108 379 190 827 468 974 605 100 93 173 220 199 346 15 75 22 81 99 83
26 1 46 -7 68 -25z m-1373 -510 l31 -5 -66 -89 -67 -89 -21 87 c-29 118 -28
119 123 96z m1346 -73 c8 -64 -3 -98 -59 -196 -170 -293 -512 -593 -984 -862
-119 -69 -365 -193 -380 -193 -5 0 -10 17 -10 38 0 35 -15 97 -35 144 -5 14 3
17 62 23 89 10 200 38 255 66 106 53 208 157 313 319 80 123 119 145 282 159
126 12 155 21 240 74 70 44 97 80 113 152 20 97 62 240 77 263 13 22 83 61
109 62 6 0 14 -22 17 -49z m-4327 -443 c-9 -44 -19 -52 -101 -78 -38 -13 -110
-38 -158 -56 -49 -19 -93 -34 -98 -34 -20 0 33 81 87 134 l57 55 76 4 c42 1
91 4 110 5 33 2 33 1 27 -30z m4199 -37 c-31 -61 -143 -199 -236 -291 -238
-237 -613 -489 -1015 -681 -138 -67 -147 -70 -180 -59 -20 7 -33 14 -30 17 2
3 76 37 163 77 439 202 845 469 1101 725 53 53 122 129 152 169 30 40 56 72
58 72 1 0 -4 -13 -13 -29z m-2089 -60 c224 -87 294 -105 393 -98 58 5 91 14
144 40 l69 34 -7 -34 c-10 -57 -8 -254 5 -323 6 -36 27 -105 46 -153 19 -48
37 -108 40 -132 6 -38 3 -47 -19 -69 -14 -14 -34 -26 -44 -26 -36 1 -105 41
-161 94 -32 30 -70 60 -85 65 -39 15 -87 -7 -152 -68 -85 -81 -142 -104 -262
-109 -92 -4 -106 -2 -157 21 -80 37 -152 110 -284 287 -63 85 -133 177 -155
203 -22 26 -38 49 -36 51 2 2 26 14 53 27 51 25 143 109 208 190 82 103 142
103 404 0z m-2176 -360 c5 -11 28 -41 50 -66 138 -159 320 -244 523 -245 139
0 431 51 780 137 125 31 229 54 230 52 2 -2 21 -29 43 -59 22 -30 43 -59 46
-65 4 -6 -29 -10 -90 -10 -80 0 -104 -4 -138 -22 -50 -27 -106 -87 -138 -150
-75 -147 -186 -161 -275 -33 -74 105 -130 135 -208 110 -21 -7 -104 -50 -185
-97 -241 -139 -399 -195 -456 -162 -40 22 -53 58 -59 175 -5 93 -9 110 -31
136 -29 34 -72 57 -166 88 -108 36 -134 73 -101 144 21 43 77 74 157 85 4 1
12 -8 18 -18z m2579 -378 c11 -16 40 -41 65 -58 25 -16 46 -33 46 -36 0 -3
-89 -36 -197 -72 -331 -111 -562 -160 -763 -161 -99 -1 -135 3 -172 17 -86 33
-126 109 -91 170 60 102 205 114 350 28 99 -58 205 -91 295 -91 141 0 240 44
358 157 41 40 78 73 82 73 4 0 16 -12 27 -27z m-2004 -313 c86 -65 161 -103
288 -145 167 -55 271 -69 522 -69 160 -1 255 4 350 17 269 38 587 117 836 208
61 23 113 38 116 36 3 -3 -1 -18 -9 -33 -10 -22 -33 -35 -116 -66 -218 -81
-530 -161 -782 -201 -185 -29 -589 -31 -724 -4 -226 46 -385 119 -504 233 -91
86 -77 100 23 24z m2580 -2 c14 -6 28 -22 31 -35 7 -26 22 -30 30 -8 9 23 24
7 24 -24 0 -95 -86 -207 -181 -235 -55 -17 -97 -19 -139 -7 -25 7 -24 7 10 20
l35 13 -42 13 c-94 29 -155 107 -157 200 0 30 2 57 5 60 3 3 36 -3 72 -12 65
-17 69 -17 144 4 91 25 132 27 168 11z"/>
<path d="M3838 5023 c-23 -6 -33 -40 -17 -59 7 -8 24 -14 38 -12 20 2 27 9 29
30 3 29 -20 48 -50 41z"/>
<path d="M3512 4641 c-8 -5 -12 -21 -10 -37 3 -25 7 -29 33 -29 24 0 31 5 33
23 6 39 -25 63 -56 43z"/>
<path d="M4250 4591 c-13 -25 -4 -48 21 -56 38 -12 65 35 37 63 -18 18 -46 14
-58 -7z"/>
<path d="M2420 4245 c-15 -19 -4 -52 21 -60 38 -12 65 35 37 63 -16 16 -43 15
-58 -3z"/>
<path d="M3444 3966 c-9 -23 -1 -48 19 -60 26 -16 62 27 47 55 -13 22 -58 26
-66 5z"/>
<path d="M1711 3826 c-7 -8 -10 -24 -6 -35 14 -45 79 -30 73 17 -2 21 -9 28
-29 30 -14 2 -31 -4 -38 -12z"/>
</g>
</svg>
